<?xml version="1.0" encoding="UTF-8" standalone="no"?>
<!DOCTYPE svg PUBLIC "-//W3C//DTD SVG 1.1//EN" "http://www.w3.org/Graphics/SVG/1.1/DTD/svg11.dtd">
<svg width="100%" height="100%" viewBox="0 0 600 740" version="1.1" xmlns="http://www.w3.org/2000/svg" xmlns:xlink="http://www.w3.org/1999/xlink" xml:space="preserve" style="fill-rule:evenodd;clip-rule:evenodd;stroke-linejoin:round;stroke-miterlimit:1.41421;">
    <g transform="matrix(2.90448,0,0,2.90448,-282.484,-334.025)">
        <path d="M251.928,180.634L252.628,180.641C252.467,180.229 252.288,179.83 252.102,179.434L251.962,179.137L251.926,179.063L251.907,179.025L251.899,179.006L251.895,178.998C251.931,179.055 251.819,178.869 251.97,179.119L251.871,178.932L251.487,178.221L251.272,177.816L250.972,177.312C250.759,176.971 250.541,176.631 250.306,176.297C249.377,174.957 248.273,173.682 247.104,172.523C244.761,170.202 242.155,168.379 239.97,167.15C242.472,169.645 244.805,172.261 246.834,174.879C247.854,176.186 248.783,177.492 249.618,178.76L250.235,179.729L250.857,180.753C251.29,181.48 251.713,182.221 252.13,182.972C251.835,182.135 251.749,181.291 251.928,180.634Z" style="fill:rgb(27,157,255);"/>
        <path d="M251.975,179.125L251.97,179.119L251.975,179.125Z" style="fill:rgb(27,157,255);"/>
        <path d="M254.354,184.693L254.401,184.768L254.401,184.741L254.354,184.693Z" style="fill:rgb(27,157,255);"/>
        <path d="M252.924,184.444L252.13,182.972C252.314,183.48 252.561,183.982 252.924,184.444Z" style="fill:rgb(27,157,255);"/>
        <path d="M297.503,252.787C297.244,254.458 296.987,256.149 297.031,257.754C297.202,256.16 297.36,254.455 297.503,252.787Z" style="fill:rgb(27,157,255);"/>
        <path d="M297.503,252.787C297.788,250.879 298.061,249.005 297.86,247.402C297.765,249.238 297.641,251.01 297.503,252.787Z" style="fill:rgb(27,157,255);"/>
        <path d="M103.997,288.035C104.588,291.215 105.29,294.378 106.107,297.533C105.456,293.19 104.715,288.992 104.44,284.817C104.211,285.762 104.081,286.865 103.997,288.035Z" style="fill:rgb(27,157,255);"/>
        <path d="M111.9,314.867C111.12,311.289 110.278,307.88 108.473,305.648C109.482,308.732 110.621,311.81 111.9,314.867Z" style="fill:rgb(27,157,255);"/>
        <path d="M238.267,139.379L239.553,140.401C239.218,139.847 238.772,139.577 238.267,139.379Z" style="fill:rgb(27,157,255);"/>
        <path d="M253.979,182.667C254.096,183.246 254.425,184.082 254.401,184.741L255.197,185.623C255.425,184.197 254.201,183.815 253.979,182.667Z" style="fill:rgb(27,157,255);"/>
        <path d="M263.311,268.213L262.469,267.369L262.173,267.926L261.773,269.855C262.077,269.023 262.557,268.322 263.311,268.213Z" style="fill:rgb(27,157,255);"/>
        <path d="M221.43,127.512C219.717,126.927 217.979,126.434 216.228,126.024C217.907,126.578 219.659,127.033 221.43,127.512Z" style="fill:rgb(27,157,255);"/>
        <path d="M290.893,289.97C292.246,285.835 293.426,281.654 294.426,277.439L293.57,279.188C292.811,282.801 291.917,286.396 290.893,289.97Z" style="fill:rgb(27,157,255);"/>
        <path d="M273.991,326.228C275.168,324.113 276.27,321.974 277.294,319.812C275.801,322.447 274.201,325.037 272.49,327.57L273.991,326.228Z" style="fill:rgb(27,157,255);"/>
        <path d="M296.22,266.523C296.508,264.762 296.782,262.998 297.016,261.231L296.339,263.043L296.22,266.523Z" style="fill:rgb(27,157,255);"/>
        <path d="M244.076,354.38C246.412,353.021 248.683,351.556 250.886,349.996L248.983,350.806C247.395,352.052 245.751,353.236 244.076,354.38Z" style="fill:rgb(27,157,255);"/>
        <path d="M166.909,147.614C164.916,148.99 163.036,150.581 161.385,152.17C163.513,151.018 165.061,149.152 166.909,147.614Z" style="fill:rgb(27,157,255);"/>
        <path d="M166.909,147.614C167.917,146.917 168.951,146.266 170.002,145.709C168.848,146.139 167.842,146.834 166.909,147.614Z" style="fill:rgb(27,157,255);"/>
        <path d="M258.489,166.291L261.278,169.754C261.721,170.279 262.168,170.799 262.569,171.188L263.264,171.881L263.443,172.051L263.583,172.146L263.923,172.422C261.946,169.977 260.256,167.311 258.207,164.738C256.169,162.184 253.792,159.783 250.674,158.213L251.796,160.27C254.267,161.492 256.523,163.891 258.489,166.291Z" style="fill:rgb(27,157,255);"/>
        <path d="M297.07,244.085C296.767,235.641 296.254,227.441 295.266,219.165C294.271,210.896 292.818,202.541 290.4,193.969C293.373,202.023 295.123,210.38 296.093,218.768C297.064,227.165 297.26,235.604 297.07,244.085ZM266.071,268.854C268.324,264.547 268.926,259.182 269.144,253.77C269.366,248.335 269.213,242.861 270.206,237.744C270.375,251.131 268.752,264.596 265.244,277.297C261.745,289.986 256.303,301.929 248.89,311.792C257.341,299.428 263.777,284.615 266.071,268.854ZM266.554,251.499C266.388,250.348 266.416,249.113 266.483,247.842C266.361,242.244 266.43,237.296 266.701,231.887C268.498,235.862 266.818,242.374 266.483,247.842L266.554,251.499ZM265.709,206.357C265.748,205.289 265.773,204.219 265.781,203.147C266.442,205.947 266.994,208.791 267.466,211.654C266.917,209.867 266.331,208.1 265.709,206.357ZM271.56,208.648L271.481,209.983C270.605,206.871 269.62,203.811 268.529,200.82C269.623,203.371 270.623,205.987 271.56,208.648ZM228.496,326.232C228.603,325.404 229.823,324.58 231.324,323.652C232.82,322.726 234.594,321.662 235.781,320.556C234.873,323.154 231.431,325.099 228.496,326.232ZM209.91,334.468L208.391,334.853L207.02,335.175L206.006,335.371L205.5,335.468L205.373,335.494L205.342,335.5L205.523,335.472L205.487,335.48L205.303,335.513C204.813,335.607 204.318,335.697 203.82,335.775C201.835,336.097 199.805,336.312 197.752,336.414C189.542,336.826 180.941,335.408 173.115,332.23C165.283,329.068 158.261,324.144 153.049,317.943C151.745,316.392 150.549,314.765 149.471,313.072C149.09,312.474 148.379,311.296 147.925,310.445C147.42,309.521 146.934,308.57 146.472,307.591C144.616,303.679 143.11,299.375 141.945,294.881C143.195,299.402 144.786,303.66 146.701,307.484C148.641,311.367 150.722,314.476 153.342,317.47C158.518,323.376 165.281,327.986 172.816,331.046C180.35,334.113 188.64,335.638 196.821,335.503C198.866,335.47 200.906,335.333 202.924,335.091C203.919,334.976 204.967,334.822 205.899,334.656L206.947,334.478L207.67,334.335L209.132,334.031C213.332,333.13 217.396,331.839 221.345,330.167C217.765,331.953 213.943,333.39 209.91,334.468ZM147.76,347.437C142.516,343.97 137.636,339.751 133.433,334.765C129.227,329.816 125.729,323.96 123.283,317.833C123.137,316.087 123.048,314.357 123.006,312.642C125.619,318.531 128.878,324.279 132.947,329.423C136.987,334.562 141.727,339.082 146.912,342.898C147.054,343.701 147.222,344.49 147.392,345.298C157.753,352.939 169.849,357.912 182.361,360.08C170.142,358.351 158.292,354.367 147.76,347.437ZM117.467,217.168L117.71,214.652C115.773,218.395 114.711,222.915 114.058,227.566C113.399,232.225 113.152,237.008 112.706,241.43C113.376,241.614 113.572,240.352 113.964,239.281C112.926,250.23 112.92,261.243 113.856,272.152C114.807,283.064 116.671,293.884 119.742,304.476C118.582,301.269 117.571,298.015 116.691,294.73C116.66,296.913 116.691,299.109 116.782,301.326C111.688,283.438 110.594,264.68 111.754,246.17C112.984,227.632 116.538,209.221 122.475,191.408C120.66,197.299 119.186,203.234 118.011,209.189C122.23,197.732 126.656,186.132 132.352,174.907C138.033,163.726 145.077,152.851 154.336,143.927C149.022,150.691 143.628,158.431 138.738,166.653C133.834,174.865 129.397,183.539 125.528,191.881C124.95,196.524 123.539,200.404 121.938,204.377C120.344,208.342 118.566,212.396 117.467,217.168ZM129.502,175.131L130.812,173.64C130.177,174.93 129.563,176.227 128.974,177.529L129.502,175.131ZM167.08,143.377C161.605,148.307 156.166,152.777 151.643,158.319C154.043,155.16 156.648,152.127 159.479,149.27L158.782,149.125C161.432,147.04 164.203,145.113 167.08,143.377ZM142.578,176.248C144.975,172.037 147.612,167.959 150.528,164.079L151.68,163.18C148.335,167.301 145.313,171.688 142.578,176.248ZM138.871,238.22C139.677,230.334 141.035,222.479 142.954,214.789L143.832,213.37C141.549,221.48 139.897,229.822 138.871,238.22ZM166.115,349.359L166.559,350.269C158.225,346.74 150.488,341.746 143.975,335.439C140.718,332.291 137.779,328.812 135.219,325.072C132.662,321.324 130.522,317.312 128.71,313.164C130.084,316.277 131.902,319.8 134.272,323.359C136.637,326.921 139.569,330.494 142.932,333.798C149.637,340.457 158.118,345.814 166.115,349.359ZM139.463,320.357C136.444,315.748 134,310.558 132.049,305.185C133.964,310.16 136.302,314.947 139.112,319.242C141.926,323.531 145.308,327.447 149.119,330.884C149.527,331.548 149.951,332.208 150.389,332.865C146.199,329.197 142.497,324.996 139.463,320.357ZM140.594,288.996C140.115,287.709 139.659,286.201 139.277,284.637C138.213,281.293 137.139,276.803 137.875,273.043L138.417,275.126C138.014,277.344 138.42,281.146 139.277,284.637C139.855,286.481 140.418,288.012 140.594,288.996ZM109.102,287.736C108.953,286.406 108.295,286 107.631,285.582C108.552,282.809 106.862,281.297 106.134,279.504C109.17,279.445 105.174,275.839 106.381,272.736C107.308,272.107 108.411,274.895 109.114,278.277C109.805,281.666 110.148,285.682 109.102,287.736ZM181.893,143.318C187.569,140.76 193.628,139.109 199.82,138.432C200.64,139.173 201.428,139.922 202.189,140.694C200.948,141.153 199.732,141.65 198.551,142.186C187.455,143.686 176.619,147.923 166.206,154.597L166.107,153.371C170.914,149.307 176.21,145.869 181.893,143.318ZM213.293,149.912C213.663,150.814 215.714,151.033 215.888,152.149C209.226,150.934 202.913,151.325 197.07,152.604C191.196,153.891 185.713,156.01 179.798,158.602C189.581,151.729 200.959,148.719 213.293,149.912ZM250.193,170.857L249.615,169.461C251.163,171.366 252.594,173.307 253.849,175.224L254.723,176.604L255.661,178.187C256.268,179.254 256.871,180.328 257.437,181.436C259.726,185.846 261.69,190.555 263.332,195.447C260.062,186.229 255.677,177.504 250.193,170.857ZM248.999,165.354C251.804,167.199 254.269,169.928 256.109,172.721C256.565,173.412 257.012,174.15 257.328,174.722L257.696,175.378L257.786,175.541L257.789,175.547C257.765,175.508 257.849,175.643 257.737,175.459L257.739,175.467L257.75,175.485L257.769,175.521L257.805,175.59L257.95,175.867L258.51,176.967C259.233,178.421 259.845,179.835 260.392,181.106C259.863,179.912 259.182,178.586 258.372,177.215L257.745,176.175L257.071,175.111L256.433,174.176L255.715,173.174C253.745,170.484 251.298,167.732 248.999,165.354ZM244.444,162.523L243.982,161.702C244.89,162.221 245.789,162.758 246.682,163.307L244.444,162.523ZM296.508,215.29C294.9,204.561 291.919,194.251 287.867,185.886C288.632,188.351 291.209,191.654 289.689,193.666L287.266,191.018C289.478,198.355 291.062,205.838 292.105,213.366C294.745,232.682 294.014,252.316 290.1,271.436C286.115,290.5 278.911,309.287 266.947,325.613C264.188,330.058 260.256,335.037 256.2,336.605C267.383,325.281 275.481,311.207 280.987,296.607C286.515,281.966 289.568,266.733 290.941,251.934C291.19,250.786 291.525,247.421 291.447,243.788C291.393,240.154 290.905,236.268 289.941,234.113C289.41,233.308 289.622,232.225 289.835,231.134C289.907,228.923 289.962,224.967 289.479,220.908C289.019,216.854 288.018,212.713 286.429,210.203C287.035,209.004 287.634,207.789 288.21,206.562C285.832,198.366 282.952,190.674 279.432,183.412C279.085,182.702 278.725,181.997 278.364,181.293L274.678,177.266C279.759,187.648 283.323,198.751 284.184,209.072C282.559,204.913 281.219,200.387 280.35,196.161C278.045,190.686 275.458,185.121 272.495,179.689C271.01,176.977 269.439,174.294 267.762,171.679C266.103,169.061 264.343,166.604 262.416,164.165C261.613,163.154 260.782,162.161 259.946,161.174L252.947,153.529C247.563,148.086 241.8,143.142 236.035,138.883L236.501,138.705C237.115,139.021 237.723,139.158 238.267,139.379C235.617,137.309 232.452,135.273 229.447,133.703C226.443,132.121 223.612,131.016 221.735,130.479C225.165,132.006 230.342,133.454 231.96,136.344C228.344,134.482 224.631,132.889 220.883,131.699C223.755,132.77 226.313,134.465 228.82,136.102C231.335,137.744 233.815,139.326 236.756,140.35C245.891,147.658 255.138,156.012 262.152,165.496C263.907,167.883 265.413,170.238 266.826,172.824C268.238,175.373 269.478,177.994 270.562,180.637C272.71,185.93 274.172,191.34 274.844,196.609C273.195,192.628 271.713,188.279 269.775,184.306C267.85,180.34 265.468,176.758 262.37,174.512C262.375,175.451 262.945,175.801 263.264,176.151C264.141,177.785 265.784,178.969 264.133,180.002C262.723,178.252 261.587,176.686 260.48,175.092C259.389,173.518 258.377,172.027 257.021,170.275L256.517,170.898C255.384,169.268 254.152,167.651 252.856,166.061C252.164,163.968 256.387,167.235 253.784,165.343C251.357,162.818 249.571,162.947 247.99,162.912C246.383,162.886 244.986,162.704 242.868,159.789L243.28,161.856L242.505,161.418C244.778,163.918 248.908,166.584 249.151,169.523C246.015,166.422 242.56,163.479 238.948,160.805C243.41,165.223 247.638,170.025 250.964,174.8C251.379,175.395 251.775,175.986 252.156,176.572L252.659,177.362L253.25,178.33C254.027,179.628 254.771,180.965 255.492,182.328C256.932,185.053 258.247,187.904 259.43,190.844C264.18,202.604 266.74,215.746 266.753,228.381C265.883,223.497 264.882,217.921 263.738,212.465C262.604,207.002 261.328,201.67 260.217,197.137C257.861,194.902 257.084,192.963 256.561,190.948C256.034,188.948 255.765,186.871 254.401,184.768C254.386,185.078 254.303,185.361 254.033,185.522C253.598,185.209 253.225,184.845 252.924,184.444C258.739,195.542 262.471,208.797 264.117,222.424C265.773,236.074 265.413,250.2 263.033,263.729L264.335,266.237C264.713,261.471 264.851,256.01 266.699,252.403C265.778,263.463 263.995,274.711 260.532,285.095C257.107,295.448 251.923,304.923 245.142,311.652L244.98,311.22C244.67,313.205 243.275,315.386 241.486,317.162C239.705,318.951 237.557,320.322 235.863,321.007C239.075,317.867 242.046,314.125 244.82,310.298C247.604,306.472 250.201,302.562 252.921,299.075C255.033,295.08 256.672,290.146 258.064,285.477C259.467,280.797 260.653,276.383 262.313,273.296C261.626,273.607 261.358,272.525 261.454,271.297C257.778,287.6 250.873,302.824 240.944,314.005C235.993,319.603 230.332,324.162 224.048,327.531C220.903,329.214 217.602,330.605 214.146,331.697C210.7,332.789 207.035,333.591 203.488,334.062C189.563,335.912 174.068,331.978 162.912,323.546C160.114,321.453 157.57,319.105 155.35,316.531C154.232,315.248 153.203,313.902 152.248,312.513L151.564,311.484C151.377,311.183 151.275,311.066 150.897,310.414C150.434,309.656 150.002,308.88 149.573,308.08C146.145,301.667 143.626,293.888 142.016,285.676C138.48,268.676 138.539,249.857 141.442,231.729C144.383,213.602 150.238,195.754 159.404,180.84L161.071,180.912C160.619,183.229 159.311,185.48 158.108,187.581C156.902,189.672 155.807,191.598 155.746,193.012C160.288,183.662 166.145,174.654 173.151,167.697C180.143,160.697 188.158,155.979 196.44,154.027C198.49,153.908 201.254,153.121 203.773,152.834C206.278,152.527 208.455,152.691 208.79,153.91C209.611,153.426 210.462,152.961 211.341,152.518C211.856,152.736 213.025,153.018 212.859,153.691L211.695,153.904C214.197,154.033 217.948,153.154 220.737,154.869C220.572,153.701 220.383,152.535 220.175,151.368C221.583,152.007 223.081,152.72 224.367,153.425L224.781,153.135C222.459,151.623 221.92,151.332 220.828,149.907C222.127,149.859 224.271,150.07 225.336,149.441C224.908,148.063 224.308,146.637 223.701,145.237L225.601,145.689L226.514,145.923L227.561,146.208C227.169,145.939 226.677,145.611 226.324,145.324L225.173,144.389C224.4,143.738 223.683,143.068 223.197,142.429C222.23,141.164 222.171,139.969 224.615,139.443C223.996,139.102 222.721,138.447 221.837,138.779C221.635,137.648 219.849,136.785 218.351,136.023C216.859,135.258 215.649,134.555 216.735,133.492C214.766,132.719 212.743,132.021 210.672,131.411C211.38,132.342 212.059,133.28 212.709,134.232C201.384,135.844 190.67,138.355 180.762,142.995C170.875,147.561 161.885,154.22 154.818,161.995C155.371,160.938 155.943,159.888 156.541,158.847C155.138,159.783 153.747,160.76 152.379,161.783C154.785,158.85 156.662,155.66 159.827,153.564C156.913,155.211 154.613,159.539 151.997,160.059C157.281,153.171 163.984,147.16 171.555,142.385C179.132,137.586 187.538,134.074 196.45,131.564C197.658,129.961 198.965,128.391 200.359,126.86C201.641,124.815 199.388,123.898 197.138,123.137C194.916,122.372 192.699,121.744 194.631,119.602C190.991,120.49 188.617,120.799 186.784,120.646C184.956,120.504 183.688,119.924 182.424,119.299C181.161,118.681 179.898,118.011 178.087,117.813C176.28,117.621 173.89,117.887 170.549,119.328C169.024,119.486 167.171,119.713 165.53,119.798C163.436,120.881 161.416,122.068 159.511,123.378C155.498,126.141 152.738,128.902 150.262,131.746C147.795,134.603 145.605,137.563 142.986,141.033C137.771,147.969 132.875,154.801 128.38,161.945C123.897,169.081 119.838,176.529 116.642,184.463C114.469,189.854 112.492,195.381 110.758,200.985C105.918,219.608 103.349,238.86 103.459,258.314C103.531,268.036 104.299,277.811 106.005,287.523C107.722,297.229 110.363,306.9 114.451,316.214C113.665,317.109 114.66,319.82 115.193,321.937L115.156,321.927C116.098,323.789 117.103,325.642 118.184,327.482L118.997,328.837L119.846,330.199C120.173,330.726 120.483,331.203 120.78,331.642L121.701,333.001C124.189,336.603 126.955,340.023 129.961,343.23C129.119,341.783 128.367,340.162 127.799,338.226C136.426,347.843 147.2,355.634 159.028,360.773C170.842,365.927 183.725,368.478 196.27,367.955C187.608,367.914 178.983,366.625 170.678,364.154C168.985,364.552 166.284,362.91 164.314,361.56C162.336,360.222 160.993,359.228 161.548,361.195C158.455,358.615 154.232,356.435 150.152,353.832C146.079,351.261 142.164,348.251 139.938,344.857C149.514,352.787 160.703,358.292 172.363,361.371C181.786,366.203 194.221,367.33 206.242,365.566C218.262,363.818 229.596,359.783 240.418,356.019L239.345,355.837C252.441,347.437 263.632,336.597 272.567,325.015C279.945,313.623 285.249,301.447 289.094,289.207C292.93,276.953 295.31,264.602 296.58,252.479C298.177,249.668 294.623,246.965 296.876,244.826C297.443,245.545 297.741,246.426 297.86,247.402C298.423,237.166 298.144,226.027 296.508,215.29Z" style="fill:rgb(27,157,255);"/>
        <path d="M113.382,321.351L115.156,321.927C113.975,319.587 112.894,317.23 111.9,314.867C112.378,317.066 112.83,319.328 113.382,321.351Z" style="fill:rgb(27,157,255);"/>
        <path d="M106.961,304.23C107.535,304.621 108.03,305.101 108.473,305.648C107.591,302.953 106.806,300.242 106.107,297.533C106.434,299.713 106.744,301.929 106.961,304.23Z" style="fill:rgb(27,157,255);"/>
        <g transform="matrix(1.71631,-0.733636,0.733636,1.71631,-2773.89,447.106)">
            <text x="1465.59px" y="546.559px" style="font-family:'GillSans-Bold', 'Gill Sans', sans-serif;font-weight:700;font-size:50px;fill:rgb(27,157,255);">TH</text>
        </g>
    </g>
</svg>
